<?xml version="1.0" encoding="UTF-8"?>
<svg id="Layer_1" data-name="Layer 1" xmlns="http://www.w3.org/2000/svg" xmlns:xlink="http://www.w3.org/1999/xlink" viewBox="0 0 1080 293.52">
  <defs>
    <style>
      .cls-1 {
        fill: url(#linear-gradient-2);
      }

      .cls-2 {
        fill: #212121;
      }

      .cls-3 {
        clip-path: url(#clippath);
      }

      .cls-4 {
        fill: none;
      }

      .cls-5 {
        fill: url(#linear-gradient-3);
      }

      .cls-6 {
        fill: url(#linear-gradient);
      }

      .cls-7 {
        fill: #231f20;
      }
    </style>
    <clipPath id="clippath">
      <rect class="cls-4" x="393.24" y="-393.24" width="293.52" height="1080" transform="translate(686.76 -393.24) rotate(90)"/>
    </clipPath>
    <linearGradient id="linear-gradient" x1="397.32" y1="128.57" x2="541.92" y2="129.15" gradientTransform="translate(-250.89 45.47) rotate(.71) scale(.86 1)" gradientUnits="userSpaceOnUse">
      <stop offset="0" stop-color="#231f20"/>
      <stop offset="1" stop-color="#58595b"/>
    </linearGradient>
    <linearGradient id="linear-gradient-2" x1="554.27" y1="123.5" x2="656.07" y2="109.48" gradientTransform="translate(-250.89 45.47) rotate(.71) scale(.86 1)" gradientUnits="userSpaceOnUse">
      <stop offset="0" stop-color="#231f20"/>
      <stop offset="1" stop-color="#58595b"/>
    </linearGradient>
    <linearGradient id="linear-gradient-3" x1="662.28" y1="77.86" x2="542.01" y2="90.46" gradientTransform="translate(-250.89 45.47) rotate(.71) scale(.86 1)" gradientUnits="userSpaceOnUse">
      <stop offset="0" stop-color="#231f20"/>
      <stop offset="1" stop-color="#58595b"/>
    </linearGradient>
  </defs>
  <g class="cls-3">
    <g>
      <g>
        <path class="cls-2" d="M373.47,88.56h49.56c25.78,0,41.81,13.68,41.81,34.99v.16c0,15.43-9.06,27.99-24.39,32.68l28.22,46.91h-22.56l-25.61-44.13h-27.53v44.13h-19.51V88.56Zm47.65,56.13c14.98,0,23.69-7.47,23.69-20.51v-.16c0-12.72-9.23-20.51-24.3-20.51h-27.53v41.19h28.14Z"/>
        <path class="cls-2" d="M475.18,160.35v-.08c0-26.95,17.07-45,43.47-45s42.59,17.41,42.59,43.33v6.04h-67.07c.35,16.54,10.28,26.16,25.87,26.16,12.11,0,19.34-5.49,21.6-9.94l.35-.64,18.21-.08-.17,.72c-3.14,11.37-16.2,24.09-40.42,24.09-27.7,0-44.42-17.25-44.42-44.61Zm19.25-8.03h48.08c-1.48-15.43-10.98-22.9-23.78-22.9s-22.65,8.03-24.3,22.9Z"/>
        <path class="cls-2" d="M575.59,116.94h18.9v13.28h1.39c4.18-9.46,13.41-14.95,25.78-14.95s22.04,6.12,26.22,15.43h1.48c4.79-9.3,15.68-15.43,28.83-15.43,19.08,0,30.23,10.49,30.23,28.46v59.55h-18.81v-55.42c0-11.93-5.92-17.81-18.29-17.81s-19.95,8.19-19.95,18.61v54.62h-18.81v-57.17c0-9.86-7.06-16.06-18.21-16.06s-19.86,8.91-19.86,20.2v53.03h-18.9V116.94Z"/>
        <path class="cls-2" d="M721.18,179.04v-.16c0-15.43,12.72-24.41,35.28-25.68l25.61-1.35v-7.63c0-9.46-6.53-14.71-19.34-14.71-10.45,0-17.33,3.5-19.6,9.62l-.09,.32h-18.21l.09-.56c2.26-14.15,17.16-23.61,38.67-23.61,23.78,0,37.2,10.81,37.2,28.94v59.08h-18.73v-12.25h-1.48c-5.57,8.75-15.5,13.68-28.05,13.68-18.03,0-31.36-10.02-31.36-25.68Zm36.41,11.93c14.11,0,24.48-8.43,24.48-19.56v-7.4l-23.08,1.35c-13.07,.72-18.99,5.01-18.99,12.8v.16c0,7.95,7.4,12.64,17.6,12.64Z"/>
        <path class="cls-2" d="M814.67,160.2v-.16c0-27.35,15.16-44.61,39.2-44.61,12.98,0,24.04,5.88,29.09,15.19h1.48v-41.47h18.81v114.14h-18.81v-13.6h-1.48c-5.49,9.46-15.85,15.03-29.09,15.03-23.78,0-39.2-17.41-39.2-44.53Zm70.04,0v-.16c0-18.45-9.76-29.82-25.44-29.82s-25.35,11.29-25.35,29.82v.16c0,18.53,9.49,29.82,25.35,29.82s25.44-11.37,25.44-29.82Z"/>
        <path class="cls-2" d="M917.75,160.35v-.08c0-26.95,17.07-45,43.47-45s42.59,17.41,42.59,43.33v6.04h-67.07c.35,16.54,10.28,26.16,25.87,26.16,12.11,0,19.34-5.49,21.6-9.94l.35-.64,18.21-.08-.17,.72c-3.14,11.37-16.2,24.09-40.42,24.09-27.7,0-44.42-17.25-44.42-44.61Zm19.25-8.03h48.08c-1.48-15.43-10.98-22.9-23.78-22.9s-22.65,8.03-24.3,22.9Z"/>
      </g>
      <g>
        <path class="cls-6" d="M240.12,178.74c-44.8,20.03-68.72,35.36-100.74,32.25-13.6-1.32-24.11-5.92-31.86-12.02,0,0,0,0-.02,0-10.98-8.63-16.42-20.25-17.34-29.76-1.24-12.9,3.83-20.08,5.94-22.47,22.41,20.23,45.22,21.92,79.36,7.53,4.94-2.08,9.48-4.25,13.7-6.47,4.51,2.14,8.88,4.68,13.08,7.58,9.09,6.28,22.96,15.38,37.87,23.37Z"/>
        <path class="cls-1" d="M315.41,204.58c-18.42-3.04-29.53-5.55-64.33-23.74-34.8-18.18-53.87-36.13-53.87-36.13,7.91,5.01,51.75,17.35,79.06,14.63,27.32-2.72,36.63-11.56,31.23-30.32-1.03-3.57-3.34-6.58-6.43-9.12,5.53,4.16,9,8.86,10.84,11.93,4.68,7.84,14.35,39.1,18.34,52.77,3.9,13.4-4.4,18.95-14.83,19.98Z"/>
        <path class="cls-5" d="M276.27,159.35c-27.32,2.72-71.16-9.62-79.06-14.63-.33-.21-.7-.45-1.1-.72,22.54-12.9,36.95-26.33,62.83-31.64,19.96-4.09,33.45,1.04,42.03,7.48,.04,.02,.07,.04,.1,.08,3.09,2.55,5.41,5.56,6.43,9.12,5.4,18.75-3.9,27.6-31.23,30.32Z"/>
        <path class="cls-7" d="M315.41,204.58c-.2,.02-.4,.04-.6,.06-10.72,.89-31.51-5.35-62.13-19.6-4.22-1.96-8.42-4.09-12.56-6.31-14.91-7.99-28.78-17.09-37.87-23.37-4.2-2.9-8.57-5.44-13.08-7.58-3.94-1.88-7.98-3.45-12.1-4.72-2.49-.77-5.09-1.57-7.65-2.33-57.86-16.83-72.41,5.07-72.41,5.07,0,0-.35,.3-.9,.92-2.12,2.39-7.18,9.57-5.94,22.47,.92,9.51,6.36,21.13,17.34,29.76-.67-.3-16.83-7.76-22.9-32.83-4.67-25.51-8.05-41.64-8.4-53.94-.35-12.3,6.79-28.9,20.98-29.98,14.19-1.1,29.61,9.54,46.31,21.71,16,11.67,43.39,33.83,52.61,40.08,.4,.27,.77,.51,1.1,.72,0,0,19.07,17.95,53.87,36.13,34.8,18.18,45.92,20.7,64.33,23.74Z"/>
      </g>
    </g>
  </g>
</svg>